<svg width="24" height="24" viewBox="0 0 24 24" fill="none" xmlns="http://www.w3.org/2000/svg">
<path d="M17 2.625C17 2.12772 17.1975 1.65081 17.5492 1.29917C17.9008 0.947544 18.3777 0.75 18.875 0.75H21.375C21.8723 0.75 22.3492 0.947544 22.7008 1.29917C23.0525 1.65081 23.25 2.12772 23.25 2.625V21.375C23.25 21.8723 23.0525 22.3492 22.7008 22.7008C22.3492 23.0525 21.8723 23.25 21.375 23.25H18.875C18.3777 23.25 17.9008 23.0525 17.5492 22.7008C17.1975 22.3492 17 21.8723 17 21.375V2.625ZM8.875 10.125C8.875 9.62772 9.07254 9.15081 9.42417 8.79917C9.77581 8.44754 10.2527 8.25 10.75 8.25H13.25C13.7473 8.25 14.2242 8.44754 14.5758 8.79917C14.9275 9.15081 15.125 9.62772 15.125 10.125V21.375C15.125 21.8723 14.9275 22.3492 14.5758 22.7008C14.2242 23.0525 13.7473 23.25 13.25 23.25H10.75C10.2527 23.25 9.77581 23.0525 9.42417 22.7008C9.07254 22.3492 8.875 21.8723 8.875 21.375V10.125ZM2.625 15.75C2.12772 15.75 1.65081 15.9475 1.29917 16.2992C0.947544 16.6508 0.75 17.1277 0.75 17.625V21.375C0.75 21.8723 0.947544 22.3492 1.29917 22.7008C1.65081 23.0525 2.12772 23.25 2.625 23.25H5.125C5.62228 23.25 6.09919 23.0525 6.45083 22.7008C6.80246 22.3492 7 21.8723 7 21.375V17.625C7 17.1277 6.80246 16.6508 6.45083 16.2992C6.09919 15.9475 5.62228 15.75 5.125 15.75H2.625Z" fill="#020202"/>
</svg>
