<svg width="20" height="28" viewBox="0 0 20 28" fill="none" xmlns="http://www.w3.org/2000/svg">
<path d="M1.25 17.75C1.25 12.9175 5.0275 9 9.6875 9H10.3125C14.9725 9 18.75 12.9175 18.75 17.75C18.75 22.5825 14.9725 26.5 10.3125 26.5H9.6875C5.0275 26.5 1.25 22.5825 1.25 17.75Z" stroke="black" stroke-width="1.5" stroke-linecap="round" stroke-linejoin="round"/>
<path d="M8.125 15.3975C8.225 14.4163 8.88375 14 9.5725 14H10.405C11.0925 14 11.7512 14.4163 11.8512 15.3975C11.8817 15.7151 11.8817 16.0349 11.8512 16.3525C11.7687 17.1625 11.2138 17.75 10.6138 17.75M10.6138 17.75C11.2138 17.75 11.7687 18.3375 11.8512 19.1475C11.8817 19.4651 11.8817 19.7849 11.8512 20.1025C11.7512 21.0837 11.0925 21.5 10.405 21.5H9.5725C8.88375 21.5 8.225 21.0837 8.125 20.1025M10.6138 17.75H10.5387M11.95 1.5L8.75 8.8725M17.5 1.5L13.9737 9.625M8.05 1.5L10 5.9925M2.5 1.5L6.02625 9.625" stroke="black" stroke-width="1.5" stroke-linecap="round" stroke-linejoin="round"/>
</svg>
