<svg width="20" height="20" viewBox="0 0 20 20" fill="none" xmlns="http://www.w3.org/2000/svg">
<path d="M1.25 9.75C1.25 4.9175 5.0275 1 9.6875 1H10.3125C14.9725 1 18.75 4.9175 18.75 9.75C18.75 14.5825 14.9725 18.5 10.3125 18.5H9.6875C5.0275 18.5 1.25 14.5825 1.25 9.75Z" stroke="black" stroke-width="1.5" stroke-linecap="round" stroke-linejoin="round"/>
<path d="M8.125 7.3975C8.225 6.41625 8.88375 6 9.5725 6H10.405C11.0925 6 11.7512 6.41625 11.8512 7.3975C11.8817 7.7151 11.8817 8.0349 11.8512 8.3525C11.7687 9.1625 11.2138 9.75 10.6138 9.75M10.6138 9.75C11.2138 9.75 11.7687 10.3375 11.8512 11.1475C11.8817 11.4651 11.8817 11.7849 11.8512 12.1025C11.7512 13.0838 11.0925 13.5 10.405 13.5H9.5725C8.88375 13.5 8.225 13.0838 8.125 12.1025M10.6138 9.75H10.5387" stroke="black" stroke-width="1.5" stroke-linecap="round" stroke-linejoin="round"/>
</svg>
