<svg width="27" height="27" viewBox="0 0 27 27" fill="none" xmlns="http://www.w3.org/2000/svg">
<path d="M9.3335 16.2778C9.3335 18.5791 13.0641 20.4444 17.6668 20.4444C22.2696 20.4444 26.0002 18.5791 26.0002 16.2778C26.0002 13.9764 22.2696 12.1111 17.6668 12.1111C13.0641 12.1111 9.3335 13.9764 9.3335 16.2778Z" stroke="#070707" stroke-width="2" stroke-linecap="round" stroke-linejoin="round"/>
<path d="M9.33333 16.2778V21.8333C9.33333 24.1333 13.0639 26 17.6667 26C22.2694 26 26 24.1333 26 21.8333V16.2778M1 5.16667C1 6.65556 2.58889 8.03055 5.16667 8.775C7.74444 9.51944 10.9222 9.51944 13.5 8.775C16.0778 8.03055 17.6667 6.65556 17.6667 5.16667C17.6667 3.67778 16.0778 2.30278 13.5 1.55833C10.9222 0.813889 7.74444 0.813889 5.16667 1.55833C2.58889 2.30278 1 3.67778 1 5.16667Z" stroke="#070707" stroke-width="2" stroke-linecap="round" stroke-linejoin="round"/>
<path d="M1 5.16663V19.0555C1 20.2888 2.07222 21.0694 3.77778 21.8333" stroke="#070707" stroke-width="2" stroke-linecap="round" stroke-linejoin="round"/>
<path d="M1 12.1111C1 13.3444 2.07222 14.125 3.77778 14.8889" stroke="#070707" stroke-width="2" stroke-linecap="round" stroke-linejoin="round"/>
</svg>
