<svg width="30" height="24" viewBox="0 0 30 24" fill="none" xmlns="http://www.w3.org/2000/svg">
<path d="M22.125 2.54981e-08C22.9802 -0.000105033 23.8035 0.324443 24.4286 0.908054C25.0537 1.49166 25.434 2.29082 25.4925 3.144L25.5 3.375V20.25C25.4997 20.4374 25.5695 20.6182 25.6958 20.7567C25.822 20.8952 25.9956 20.9814 26.1822 20.9983C26.3689 21.0152 26.5551 20.9617 26.7042 20.8482C26.8534 20.7347 26.9546 20.5694 26.988 20.385L27 20.25V4.521C27.7829 4.60854 28.5105 4.96719 29.0568 5.53483C29.6031 6.10246 29.9336 6.84331 29.991 7.629L30 7.875V19.125C30.0001 20.3702 29.5237 21.5682 28.6685 22.4733C27.8133 23.3785 26.6442 23.922 25.401 23.9925L25.125 24H4.875C3.62979 24.0001 2.43176 23.5237 1.52665 22.6685C0.62155 21.8133 0.077998 20.6442 0.0075002 19.401L2.5498e-08 19.125V3.375C-0.000105033 2.51981 0.324443 1.69647 0.908054 1.07137C1.49166 0.446272 2.29082 0.0660332 3.144 0.0075002L3.375 2.54981e-08H22.125ZM10.872 10.5H5.622C5.32363 10.5 5.03748 10.6185 4.8265 10.8295C4.61553 11.0405 4.497 11.3266 4.497 11.625V16.875C4.497 17.496 5.001 18 5.622 18H10.872C11.1704 18 11.4565 17.8815 11.6675 17.6705C11.8785 17.4595 11.997 17.1734 11.997 16.875V11.625C11.997 11.3266 11.8785 11.0405 11.6675 10.8295C11.4565 10.6185 11.1704 10.5 10.872 10.5ZM19.878 15.75H16.131L15.978 15.7605C15.6956 15.7994 15.4385 15.9439 15.2586 16.1651C15.0788 16.3862 14.9895 16.6673 15.009 16.9517C15.0284 17.2361 15.155 17.5024 15.3633 17.697C15.5716 17.8916 15.846 17.9999 16.131 18H19.878L20.031 17.9895C20.3134 17.9506 20.5705 17.8061 20.7504 17.5849C20.9302 17.3638 21.0195 17.0827 21 16.7983C20.9806 16.5139 20.854 16.2476 20.6457 16.053C20.4374 15.8584 20.163 15.7501 19.878 15.75ZM9.747 12.75V15.75H6.747V12.75H9.747ZM19.875 10.5L16.128 10.5075L15.975 10.5165C15.6899 10.5526 15.4294 10.6964 15.247 10.9185C15.0645 11.1406 14.974 11.424 14.994 11.7107C15.0139 11.9974 15.1429 12.2656 15.3543 12.4603C15.5657 12.6549 15.8436 12.7613 16.131 12.7575L19.8795 12.75L20.031 12.7395C20.3135 12.7006 20.5707 12.5559 20.7506 12.3347C20.9305 12.1134 21.0196 11.8321 21 11.5476C20.9804 11.2631 20.8534 10.9967 20.6449 10.8022C20.4363 10.6077 20.1617 10.4997 19.8765 10.5M19.878 5.256H5.622L5.469 5.2665C5.18662 5.30535 4.92952 5.44994 4.74965 5.67105C4.56977 5.89216 4.48053 6.17331 4.49996 6.45768C4.51939 6.74205 4.64604 7.00845 4.85431 7.20304C5.06259 7.39763 5.33696 7.50591 5.622 7.506H19.878L20.031 7.497C20.3158 7.46088 20.576 7.31724 20.7584 7.09551C20.9407 6.87378 21.0314 6.59073 21.0118 6.30431C20.9923 6.0179 20.864 5.7498 20.6532 5.55491C20.4424 5.36002 20.1651 5.25308 19.878 5.256Z" fill="#030303"/>
</svg>
