<svg width="27" height="27" viewBox="0 0 27 27" fill="none" xmlns="http://www.w3.org/2000/svg">
<path d="M5.65417 11.7354C7.75417 15.8625 11.1375 19.2312 15.2646 21.3458L18.4729 18.1375C18.8667 17.7438 19.45 17.6125 19.9604 17.7875C21.5938 18.3271 23.3583 18.6188 25.1667 18.6188C25.9688 18.6188 26.625 19.275 26.625 20.0771V25.1667C26.625 25.9688 25.9688 26.625 25.1667 26.625C11.4729 26.625 0.375 15.5271 0.375 1.83333C0.375 1.03125 1.03125 0.375 1.83333 0.375H6.9375C7.73958 0.375 8.39583 1.03125 8.39583 1.83333C8.39583 3.65625 8.6875 5.40625 9.22708 7.03958C9.3875 7.55 9.27083 8.11875 8.8625 8.52708L5.65417 11.7354Z" fill="#030303"/>
</svg>
