<svg width="16" height="16" viewBox="0 0 16 16" fill="none" xmlns="http://www.w3.org/2000/svg">
<path d="M1 8C1 4.134 4.022 1 7.75 1H8.25C11.978 1 15 4.134 15 8C15 11.866 11.978 15 8.25 15H7.75C4.022 15 1 11.866 1 8Z" stroke="black" stroke-width="1.5" stroke-linecap="round" stroke-linejoin="round"/>
<path d="M6.5 6.118C6.58 5.333 7.108 5 7.658 5H8.324C8.874 5 9.401 5.333 9.481 6.118C9.50538 6.37208 9.50538 6.62792 9.481 6.882C9.432 7.36 8.854 7.909 8.854 7.909L8 8.5C8 8.5 6.5 9.5 6.5 10.5C6.5 11.04 6.937 11 7.477 11H9.481" stroke="black" stroke-width="1.5" stroke-linecap="round" stroke-linejoin="round"/>
</svg>
