<svg width="16" height="22" viewBox="0 0 16 22" fill="none" xmlns="http://www.w3.org/2000/svg">
<path d="M1 14C1 10.134 4.022 7 7.75 7H8.25C11.978 7 15 10.134 15 14C15 17.866 11.978 21 8.25 21H7.75C4.022 21 1 17.866 1 14Z" stroke="black" stroke-width="1.5" stroke-linecap="round" stroke-linejoin="round"/>
<path d="M6.5 12.118C6.58 11.333 7.108 11 7.658 11H8.324C8.874 11 9.401 11.333 9.481 12.118C9.50538 12.3721 9.50538 12.6279 9.481 12.882C9.432 13.36 8.854 13.909 8.854 13.909L8 14.5C8 14.5 6.5 15.5 6.5 16.5C6.5 17.04 6.937 17 7.477 17H9.481M9.56 1L7 6.898M14 1L11.179 7.5M6.44 1L8 4.594M2 1L4.821 7.5" stroke="black" stroke-width="1.5" stroke-linecap="round" stroke-linejoin="round"/>
</svg>
