<svg width="24" height="24" viewBox="0 0 24 24" fill="none" xmlns="http://www.w3.org/2000/svg">
<path d="M12.1284 12.2661C10.5208 12.2661 9.14464 11.6937 7.99986 10.5489C6.85508 9.40412 6.28269 8.02795 6.28269 6.42039C6.28269 4.81282 6.85508 3.43665 7.99986 2.29188C9.14464 1.1471 10.5208 0.574707 12.1284 0.574707C13.7359 0.574707 15.1121 1.1471 16.2569 2.29188C17.4017 3.43665 17.974 4.81282 17.974 6.42039C17.974 8.02795 17.4017 9.40412 16.2569 10.5489C15.1121 11.6937 13.7359 12.2661 12.1284 12.2661ZM0.437012 23.9574V19.8654C0.437012 19.0373 0.650379 18.2764 1.07711 17.5827C1.50385 16.889 2.0699 16.359 2.77528 15.9927C4.28542 15.2376 5.81991 14.6716 7.37876 14.2945C8.9376 13.9175 10.5208 13.7285 12.1284 13.7275C13.7359 13.7265 15.3191 13.9155 16.878 14.2945C18.4368 14.6735 19.9713 15.2396 21.4815 15.9927C22.1878 16.358 22.7544 16.888 23.1811 17.5827C23.6078 18.2774 23.8207 19.0383 23.8197 19.8654V23.9574H0.437012Z" fill="black"/>
</svg>
