<svg width="24" height="24" viewBox="0 0 24 24" fill="none" xmlns="http://www.w3.org/2000/svg">
<path d="M12.1284 12.2662C10.5208 12.2662 9.14464 11.6938 7.99986 10.549C6.85508 9.40423 6.28269 8.02806 6.28269 6.4205C6.28269 4.81294 6.85508 3.43677 7.99986 2.29199C9.14464 1.14721 10.5208 0.574821 12.1284 0.574821C13.7359 0.574821 15.1121 1.14721 16.2569 2.29199C17.4017 3.43677 17.974 4.81294 17.974 6.4205C17.974 8.02806 17.4017 9.40423 16.2569 10.549C15.1121 11.6938 13.7359 12.2662 12.1284 12.2662ZM0.437012 23.9575V19.8656C0.437012 19.0374 0.650379 18.2765 1.07711 17.5828C1.50385 16.8891 2.0699 16.3591 2.77528 15.9928C4.28542 15.2377 5.81991 14.6717 7.37876 14.2946C8.9376 13.9176 10.5208 13.7286 12.1284 13.7276C13.7359 13.7266 15.3191 13.9156 16.878 14.2946C18.4368 14.6736 19.9713 15.2397 21.4815 15.9928C22.1878 16.3582 22.7544 16.8882 23.1811 17.5828C23.6078 18.2775 23.8207 19.0384 23.8197 19.8656V23.9575H0.437012Z" fill="white"/>
</svg>
